HIERARCHY
ROOT Hips
{
	OFFSET 0.000000 0.000000 0.000000
	CHANNELS 6 Xposition Yposition Zposition Zrotation Yrotation Xrotation 
	JOINT LHipJoint
	{
		OFFSET 0.000000 0.000000 0.000000
		CHANNELS 3 Zrotation Yrotation Xrotation
		JOINT LeftUpLeg
		{
			OFFSET 1.363060 -1.794630 0.839290
			CHANNELS 3 Zrotation Yrotation Xrotation
			JOINT LeftLeg
			{
				OFFSET 2.448110 -6.726130 0.000000
				CHANNELS 3 Zrotation Yrotation Xrotation
				JOINT LeftFoot
				{
					OFFSET 2.562200 -7.039590 0.000000
					CHANNELS 3 Zrotation Yrotation Xrotation
					JOINT LeftToeBase
					{
						OFFSET 0.157640 -0.433110 2.322550
						CHANNELS 3 Zrotation Yrotation Xrotation
						End Site
						{
							OFFSET 0.000000 0.000000 0.000000
						}
					}
				}
			}
		}
	}
	JOINT RHipJoint
	{
		OFFSET 0.000000 0.000000 0.000000
		CHANNELS 3 Zrotation Yrotation Xrotation
		JOINT RightUpLeg
		{
			OFFSET -1.305520 -1.794630 0.839290
			CHANNELS 3 Zrotation Yrotation Xrotation
			JOINT RightLeg
			{
				OFFSET -2.542530 -6.985550 0.000000
				CHANNELS 3 Zrotation Yrotation Xrotation
				JOINT RightFoot
				{
					OFFSET -2.568260 -7.056230 0.000000
					CHANNELS 3 Zrotation Yrotation Xrotation
					JOINT RightToeBase
					{
						OFFSET -0.164730 -0.452590 2.363150
						CHANNELS 3 Zrotation Yrotation Xrotation
						End Site
						{
							OFFSET 0.000000 0.000000 0.000000
						}
					}
				}
			}
		}
	}
	JOINT LowerBack
	{
		OFFSET 0.000000 0.000000 0.000000
		CHANNELS 3 Zrotation Yrotation Xrotation
		JOINT Spine
		{
			OFFSET 0.028270 2.035590 -0.193380
			CHANNELS 3 Zrotation Yrotation Xrotation
			JOINT Spine1
			{
				OFFSET 0.056720 2.048850 -0.042750
				CHANNELS 3 Zrotation Yrotation Xrotation
				JOINT Neck
				{
					OFFSET 0.000000 0.000000 0.000000
					CHANNELS 3 Zrotation Yrotation Xrotation
					JOINT Neck1
					{
						OFFSET -0.054170 1.746240 0.172020
						CHANNELS 3 Zrotation Yrotation Xrotation
						JOINT Head
						{
							OFFSET 0.104070 1.761360 -0.123970
							CHANNELS 3 Zrotation Yrotation Xrotation
							End Site
							{
								OFFSET 0.000000 0.000000 0.000000
							}
						}
					}
				}
				JOINT LeftShoulder
				{
					OFFSET 0.000000 0.000000 0.000000
					CHANNELS 3 Zrotation Yrotation Xrotation
					JOINT LeftArm
					{
						OFFSET 3.362410 1.200890 -0.311210
						CHANNELS 3 Zrotation Yrotation Xrotation
						JOINT LeftForeArm
						{
							OFFSET 4.983000 -0.000000 -0.000000
							CHANNELS 3 Zrotation Yrotation Xrotation
							JOINT LeftHand
							{
								OFFSET 3.483560 -0.000000 -0.000000
								CHANNELS 3 Zrotation Yrotation Xrotation
								JOINT LeftFingerBase
								{
									OFFSET 0.000000 0.000000 0.000000
									CHANNELS 3 Zrotation Yrotation Xrotation
									JOINT LeftHandIndex1
									{
										OFFSET 0.715260 -0.000000 -0.000000
										CHANNELS 3 Zrotation Yrotation Xrotation
										End Site
										{
											OFFSET 0.000000 0.000000 0.000000
										}
									}
								}
								JOINT LThumb
								{
									OFFSET 0.000000 0.000000 0.000000
									CHANNELS 3 Zrotation Yrotation Xrotation
									End Site
									{
										OFFSET 0.000000 0.000000 0.000000
									}
								}
							}
						}
					}
				}
				JOINT RightShoulder
				{
					OFFSET 0.000000 0.000000 0.000000
					CHANNELS 3 Zrotation Yrotation Xrotation
					JOINT RightArm
					{
						OFFSET -3.136600 1.374050 -0.404650
						CHANNELS 3 Zrotation Yrotation Xrotation
						JOINT RightForeArm
						{
							OFFSET -5.241900 -0.000000 -0.000000
							CHANNELS 3 Zrotation Yrotation Xrotation
							JOINT RightHand
							{
								OFFSET -3.444170 -0.000000 -0.000000
								CHANNELS 3 Zrotation Yrotation Xrotation
								JOINT RightFingerBase
								{
									OFFSET 0.000000 0.000000 0.000000
									CHANNELS 3 Zrotation Yrotation Xrotation
									JOINT RightHandIndex1
									{
										OFFSET -0.622530 -0.000000 -0.000000
										CHANNELS 3 Zrotation Yrotation Xrotation
										End Site
										{
											OFFSET 0.000000 0.000000 0.000000
										}
									}
								}
								JOINT RThumb
								{
									OFFSET 0.000000 0.000000 0.000000
									CHANNELS 3 Zrotation Yrotation Xrotation
									End Site
									{
										OFFSET 0.000000 0.000000 0.000000
									}
								}
							}
						}
					}
				}
			}
		}
	}
}
MOTION
Frames: 9
Frame Time: 0.008333
8.922841 17.993377 25.936058 -177.366717 7.313510 -177.475669 1.221780 4.133615 1.594951 -19.291904 -26.500405 1.890740 -3.262563 6.263670 18.721869 -4.700316 17.082396 -13.479946 0.088500 -1.918200 -5.279700 -5.308791 -4.200189 0.540317 30.139404 22.328602 6.534724 3.833938 -3.186797 12.491843 6.572368 -27.582262 -15.886021 -0.002000 -0.288900 0.793700 2.652192 1.603983 7.951623 4.244512 2.670086 0.079247 -5.480530 1.069044 -14.570116 -10.844401 -1.745307 -13.689552 17.035347 -2.932840 3.986954 3.625000 -1.459900 2.023900 -1.831453 -10.415295 1.985944 -92.292345 14.875078 31.387998 24.911055 -24.183087 -6.390413 1.521261 0.593738 8.949855 1.794026 -32.177563 -0.219900 -7.125000 0.000000 0.000000 -17.574700 -1.720800 19.000900 0.480584 9.417310 3.041019 90.390798 -15.410973 41.393386 -24.798544 27.868334 -7.322627 0.725380 -0.538061 14.080983 -4.942797 -55.569626 4.760600 7.125000 0.000000 0.000000 76.759200 -73.919200 -59.979900 
8.924462 17.993725 25.937563 -177.401902 7.112293 -177.550812 1.199611 4.149408 1.645523 -19.281799 -26.545490 1.885331 -3.256380 6.260182 18.719391 -4.683382 17.011315 -13.367654 0.085800 -1.889800 -5.201200 -5.317892 -4.212207 0.592336 30.126875 22.239889 6.537843 3.836564 -3.176468 12.493139 6.571028 -27.596201 -16.028281 -0.003500 -0.382300 1.050400 2.777056 1.556347 7.505689 4.064385 2.559830 0.765822 -5.486188 1.038458 -14.368839 -10.946896 -1.687965 -13.633882 17.193405 -2.847670 3.525959 3.687800 -1.452400 1.906600 -1.793256 -10.491030 1.939666 -92.241883 14.623399 31.245409 24.948833 -24.221306 -6.390602 1.511978 0.594921 8.892288 2.018076 -31.935580 -0.344200 -7.125000 0.000000 0.000000 -17.446600 -1.510200 18.784300 0.488157 9.392948 2.964894 90.305823 -15.101424 41.693958 -24.703417 27.749776 -7.268423 0.731230 -0.540029 14.115128 -5.276284 -55.285350 5.022500 7.125000 0.000000 0.000000 75.645000 -73.988000 -58.991200 
8.925966 17.994651 25.938026 -177.452606 6.926066 -177.556755 1.200207 4.147783 1.641530 -19.321147 -26.566394 1.880914 -3.256128 6.251007 18.685836 -4.716166 17.076884 -13.195756 0.125900 -2.287700 -6.301300 -5.308264 -4.214743 0.604310 30.075187 22.251899 6.539340 3.841428 -3.174517 12.499089 6.564472 -27.611366 -16.263768 -0.006400 -0.517600 1.422200 2.715463 1.534365 7.479007 4.097618 2.517777 0.838466 -5.456403 1.028888 -14.360407 -11.103793 -1.667487 -13.580468 17.311263 -2.820168 3.410319 3.750600 -1.448400 1.873100 -1.790216 -10.505548 1.933385 -92.311467 14.639028 31.116611 24.963025 -24.241350 -6.399847 1.511282 0.597399 8.896660 2.066156 -32.011026 -0.371700 -7.125000 0.000000 0.000000 -17.421000 -1.589200 18.777900 0.485163 9.377646 2.955341 90.187774 -15.127946 41.990961 -24.621590 27.651968 -7.230467 0.733897 -0.544226 14.076437 -5.497228 -55.231367 5.202700 7.125000 0.000000 0.000000 75.351300 -74.057100 -58.790400 
8.928165 17.997197 25.937678 -177.444327 6.764099 -177.454987 1.201152 4.135158 1.607358 -19.281637 -26.706789 1.837250 -3.261444 6.244781 18.650994 -4.761612 17.192906 -13.167848 0.154500 -2.533000 -6.981100 -5.291253 -4.206242 0.599931 30.035559 22.245269 6.434551 3.847515 -3.175506 12.483800 6.554998 -27.606721 -16.390081 -0.010100 -0.648600 1.782500 2.647008 1.536890 7.506641 4.202873 2.523968 0.696319 -5.443853 1.032458 -14.357647 -11.209557 -1.665979 -13.596120 17.362896 -2.813275 3.418980 3.784200 -1.444300 1.879900 -1.804633 -10.504776 1.941371 -92.398130 14.678746 30.957708 24.982970 -24.271197 -6.414721 1.519969 0.589385 8.871862 1.692015 -32.092535 -0.163500 -7.125000 0.000000 0.000000 -17.628900 -1.624000 19.035900 0.481002 9.376750 2.967347 90.140026 -15.214814 42.073781 -24.553715 27.561351 -7.187731 0.733308 -0.553165 14.273973 -6.133542 -54.947803 5.705900 7.125000 0.000000 0.000000 74.076800 -74.228000 -57.775700 
8.929902 17.999859 25.937678 -177.426809 6.637918 -177.357398 1.179465 4.126611 1.609451 -19.165314 -26.771718 1.713052 -3.262895 6.238996 18.620193 -4.757520 17.155735 -13.099597 0.152700 -2.518200 -6.940000 -5.294421 -4.196318 0.612898 30.009546 22.177495 6.287022 3.849416 -3.176126 12.469428 6.546470 -27.576943 -16.367278 -0.015200 -0.796900 2.190300 2.772550 1.554177 7.215575 4.061895 2.534255 0.933764 -5.475139 1.038022 -14.199876 -11.092497 -1.705634 -13.687439 17.279812 -2.851707 3.402083 3.736000 -1.463000 1.897300 -1.791017 -10.528671 1.928471 -92.323190 14.532456 30.973293 25.002880 -24.294740 -6.422835 1.523932 0.585890 8.661201 1.432304 -32.104670 -0.018200 -7.125000 0.000000 0.000000 -17.772800 -1.603200 19.201100 0.489796 9.393167 2.939742 90.211966 -15.114599 41.956245 -24.410497 27.367415 -7.084140 0.734159 -0.569317 14.922848 -7.253833 -54.054972 6.553900 7.125000 0.000000 0.000000 70.420700 -74.422900 -54.573800 
8.930480 18.000554 25.938257 -177.433394 6.631535 -177.283439 1.153670 4.118083 1.619366 -19.094796 -26.740420 1.604085 -3.262208 6.235901 18.602972 -4.713003 17.014422 -13.032249 0.124600 -2.275700 -6.268300 -5.311341 -4.186693 0.613429 29.975471 22.144111 6.158913 3.846891 -3.181342 12.457882 6.580063 -27.640057 -16.164303 -0.011400 -0.689000 1.893500 2.940552 1.616413 7.002206 3.812578 2.612178 1.109802 -5.532151 1.072810 -14.073708 -10.998563 -1.727252 -13.700851 17.271336 -2.880915 3.402386 3.713900 -1.476000 1.907100 -1.762837 -10.546425 1.919113 -92.219168 14.448894 30.984048 24.996792 -24.292388 -6.425788 1.523276 0.596698 8.497629 1.569752 -32.357742 -0.093700 -7.125000 0.000000 0.000000 -17.701400 -1.863500 19.196000 0.509676 9.393060 2.930063 90.328431 -15.048942 41.895210 -24.719478 27.738991 -7.262603 0.726554 -0.543963 13.902349 -7.076341 -54.956259 6.467500 7.125000 0.000000 0.000000 73.720500 -74.567800 -57.826600 
8.931638 18.000554 25.938141 -177.427064 6.599320 -177.253090 1.139335 4.119261 1.610226 -19.076621 -26.798391 1.614429 -3.262711 6.234422 18.587062 -4.736464 17.067228 -12.963097 0.139700 -2.408500 -6.636100 -5.330513 -4.182060 0.597233 29.999601 22.139483 6.128067 3.845870 -3.185227 12.452276 6.623045 -27.753054 -16.036251 -0.008000 -0.576700 1.584800 3.076521 1.662099 7.093916 3.611244 2.691784 1.020398 -5.591749 1.099947 -14.111936 -10.964731 -1.744147 -13.734003 17.333703 -2.909928 3.517855 3.725600 -1.479200 1.943400 -1.736629 -10.534736 1.933232 -92.127721 14.565683 31.022873 25.025355 -24.328793 -6.448157 1.517980 0.609709 8.391296 1.839013 -32.624335 -0.246300 -7.125000 0.000000 0.000000 -17.557400 -2.152800 19.111500 0.529883 9.383504 2.943113 90.417982 -15.170822 41.861480 -24.891359 27.945490 -7.367695 0.716313 -0.536872 13.864330 -6.682793 -55.610334 6.185700 7.125000 0.000000 0.000000 76.234600 -74.546400 -60.197600 
8.933953 18.001017 25.937678 -177.447469 6.435267 -177.322348 1.126459 4.135721 1.612353 -19.106760 -26.902176 1.699767 -3.261169 6.237912 18.585761 -4.797842 17.229898 -12.893480 0.206400 -2.925100 -8.070300 -5.351150 -4.189601 0.595581 30.043184 22.060003 6.218930 3.848327 -3.172276 12.448414 6.615521 -27.749515 -16.129865 -0.016100 -0.820000 2.253600 3.208514 1.663796 7.233686 3.384660 2.708715 1.051393 -5.627765 1.100759 -14.207682 -10.870673 -1.805793 -13.814158 17.309913 -2.991983 3.600882 3.702100 -1.511800 1.975300 -1.704763 -10.518681 1.939432 -92.002612 14.641332 31.196914 25.035450 -24.339523 -6.454778 1.509501 0.620539 8.213230 2.098346 -32.695131 -0.394300 -7.125000 0.000000 0.000000 -17.415700 -2.250800 18.971000 0.546295 9.374996 2.943770 90.494604 -15.212622 41.759598 -24.944296 28.022288 -7.412642 0.711562 -0.534818 14.287871 -5.411457 -56.152172 5.171300 7.125000 0.000000 0.000000 78.626500 -74.174800 -62.083000 
8.936731 18.001017 25.937215 -177.442852 6.240169 -177.403010 1.126819 4.148744 1.625497 -19.104617 -26.957223 1.754671 -3.256343 6.241450 18.605459 -4.750961 17.100225 -12.906309 0.194300 -2.838500 -7.829600 -5.352263 -4.198210 0.608834 30.094337 22.003437 6.323540 3.854679 -3.154960 12.439798 6.584803 -27.702754 -16.368390 -0.041300 -1.311800 3.607200 3.240611 1.667946 7.279197 3.366087 2.714024 1.198116 -5.644383 1.102752 -14.256785 -10.857066 -1.799529 -13.810566 17.225061 -3.061299 3.498847 3.671100 -1.595900 1.946300 -1.698063 -10.521016 1.930189 -91.987028 14.592139 31.254090 24.996173 -24.300444 -6.440247 1.506336 0.629180 8.119130 2.264979 -32.809775 -0.489700 -7.125000 0.000000 0.000000 -17.326900 -2.382500 18.903800 0.542297 9.368416 2.930755 90.482957 -15.144761 41.745927 -24.956074 28.041958 -7.418516 0.716399 -0.532396 14.367960 -4.592074 -56.097918 4.494200 7.125000 0.000000 0.000000 78.734500 -73.878000 -61.844600 
